<svg xmlns="http://www.w3.org/2000/svg" version="1.1" xmlns:xlink="http://www.w3.org/1999/xlink" xmlns:svgjs="http://svgjs.com/svgjs" width="1440" height="560" preserveAspectRatio="none" viewBox="0 0 1440 560"><g mask="url(&quot;#SvgjsMask1000&quot;)" fill="none"><path d="M-110.79 402.11L-110.79 402.11" stroke="rgba(115, 115, 171, 1)" stroke-width="1.5"></path><path d="M-110.79 402.11L44.13 408.37" stroke="rgba(115, 115, 171, 1)" stroke-width="1.5"></path><path d="M-110.79 402.11L85.1 503.19" stroke="rgba(115, 115, 171, 1)" stroke-width="1.5"></path><path d="M-61.82 668.9L-61.82 668.9" stroke="rgba(115, 115, 171, 1)" stroke-width="1.5"></path><path d="M-61.82 668.9L103.17 693.99" stroke="rgba(115, 115, 171, 1)" stroke-width="1.5"></path><path d="M-61.82 668.9L85.1 503.19" stroke="rgba(115, 115, 171, 1)" stroke-width="1.5"></path><path d="M-61.82 668.9L-110.79 402.11" stroke="rgba(115, 115, 171, 1)" stroke-width="1.5"></path><path d="M44.13 408.37L44.13 408.37" stroke="rgba(115, 115, 171, 1)" stroke-width="1.5"></path><path d="M44.13 408.37L85.1 503.19" stroke="rgba(115, 115, 171, 1)" stroke-width="1.5"></path><path d="M44.13 408.37L217.32 524.64" stroke="rgba(115, 115, 171, 1)" stroke-width="1.5"></path><path d="M44.13 408.37L252.06 372.52" stroke="rgba(115, 115, 171, 1)" stroke-width="1.5"></path><path d="M44.13 408.37L-61.82 668.9" stroke="rgba(115, 115, 171, 1)" stroke-width="1.5"></path><path d="M44.13 408.37L103.17 693.99" stroke="rgba(115, 115, 171, 1)" stroke-width="1.5"></path><path d="M85.1 503.19L85.1 503.19" stroke="rgba(115, 115, 171, 1)" stroke-width="1.5"></path><path d="M85.1 503.19L217.32 524.64" stroke="rgba(115, 115, 171, 1)" stroke-width="1.5"></path><path d="M85.1 503.19L103.17 693.99" stroke="rgba(115, 115, 171, 1)" stroke-width="1.5"></path><path d="M85.1 503.19L252.06 372.52" stroke="rgba(115, 115, 171, 1)" stroke-width="1.5"></path><path d="M103.17 693.99L103.17 693.99" stroke="rgba(115, 115, 171, 1)" stroke-width="1.5"></path><path d="M103.17 693.99L254.21 672.85" stroke="rgba(115, 115, 171, 1)" stroke-width="1.5"></path><path d="M252.06 372.52L252.06 372.52" stroke="rgba(115, 115, 171, 1)" stroke-width="1.5"></path><path d="M252.06 372.52L371.37 362.84" stroke="rgba(115, 115, 171, 1)" stroke-width="1.5"></path><path d="M252.06 372.52L217.32 524.64" stroke="rgba(115, 115, 171, 1)" stroke-width="1.5"></path><path d="M252.06 372.52L381.13 552.45" stroke="rgba(115, 115, 171, 1)" stroke-width="1.5"></path><path d="M217.32 524.64L217.32 524.64" stroke="rgba(115, 115, 171, 1)" stroke-width="1.5"></path><path d="M217.32 524.64L254.21 672.85" stroke="rgba(115, 115, 171, 1)" stroke-width="1.5"></path><path d="M254.21 672.85L254.21 672.85" stroke="rgba(115, 115, 171, 1)" stroke-width="1.5"></path><path d="M254.21 672.85L347.4 684.23" stroke="rgba(115, 115, 171, 1)" stroke-width="1.5"></path><path d="M371.37 362.84L371.37 362.84" stroke="rgba(115, 115, 171, 1)" stroke-width="1.5"></path><path d="M371.37 362.84L533.67 393.2" stroke="rgba(115, 115, 171, 1)" stroke-width="1.5"></path><path d="M371.37 362.84L381.13 552.45" stroke="rgba(115, 115, 171, 1)" stroke-width="1.5"></path><path d="M381.13 552.45L381.13 552.45" stroke="rgba(115, 115, 171, 1)" stroke-width="1.5"></path><path d="M381.13 552.45L487.78 527.11" stroke="rgba(115, 115, 171, 1)" stroke-width="1.5"></path><path d="M381.13 552.45L347.4 684.23" stroke="rgba(115, 115, 171, 1)" stroke-width="1.5"></path><path d="M381.13 552.45L217.32 524.64" stroke="rgba(115, 115, 171, 1)" stroke-width="1.5"></path><path d="M381.13 552.45L254.21 672.85" stroke="rgba(115, 115, 171, 1)" stroke-width="1.5"></path><path d="M347.4 684.23L347.4 684.23" stroke="rgba(115, 115, 171, 1)" stroke-width="1.5"></path><path d="M347.4 684.23L521.96 689.15" stroke="rgba(115, 115, 171, 1)" stroke-width="1.5"></path><path d="M347.4 684.23L217.32 524.64" stroke="rgba(115, 115, 171, 1)" stroke-width="1.5"></path><path d="M347.4 684.23L487.78 527.11" stroke="rgba(115, 115, 171, 1)" stroke-width="1.5"></path><path d="M533.67 393.2L533.67 393.2" stroke="rgba(115, 115, 171, 1)" stroke-width="1.5"></path><path d="M533.67 393.2L648.91 346.21" stroke="rgba(115, 115, 171, 1)" stroke-width="1.5"></path><path d="M533.67 393.2L487.78 527.11" stroke="rgba(115, 115, 171, 1)" stroke-width="1.5"></path><path d="M533.67 393.2L688.73 496.35" stroke="rgba(115, 115, 171, 1)" stroke-width="1.5"></path><path d="M533.67 393.2L381.13 552.45" stroke="rgba(115, 115, 171, 1)" stroke-width="1.5"></path><path d="M487.78 527.11L487.78 527.11" stroke="rgba(115, 115, 171, 1)" stroke-width="1.5"></path><path d="M487.78 527.11L521.96 689.15" stroke="rgba(115, 115, 171, 1)" stroke-width="1.5"></path><path d="M487.78 527.11L371.37 362.84" stroke="rgba(115, 115, 171, 1)" stroke-width="1.5"></path><path d="M487.78 527.11L688.73 496.35" stroke="rgba(115, 115, 171, 1)" stroke-width="1.5"></path><path d="M521.96 689.15L521.96 689.15" stroke="rgba(115, 115, 171, 1)" stroke-width="1.5"></path><path d="M521.96 689.15L692.74 707.23" stroke="rgba(115, 115, 171, 1)" stroke-width="1.5"></path><path d="M521.96 689.15L381.13 552.45" stroke="rgba(115, 115, 171, 1)" stroke-width="1.5"></path><path d="M648.91 346.21L648.91 346.21" stroke="rgba(115, 115, 171, 1)" stroke-width="1.5"></path><path d="M648.91 346.21L688.73 496.35" stroke="rgba(115, 115, 171, 1)" stroke-width="1.5"></path><path d="M648.91 346.21L804.91 357.16" stroke="rgba(115, 115, 171, 1)" stroke-width="1.5"></path><path d="M688.73 496.35L688.73 496.35" stroke="rgba(115, 115, 171, 1)" stroke-width="1.5"></path><path d="M688.73 496.35L794.13 540.56" stroke="rgba(115, 115, 171, 1)" stroke-width="1.5"></path><path d="M688.73 496.35L804.91 357.16" stroke="rgba(115, 115, 171, 1)" stroke-width="1.5"></path><path d="M692.74 707.23L692.74 707.23" stroke="rgba(115, 115, 171, 1)" stroke-width="1.5"></path><path d="M692.74 707.23L821.03 696.35" stroke="rgba(115, 115, 171, 1)" stroke-width="1.5"></path><path d="M692.74 707.23L794.13 540.56" stroke="rgba(115, 115, 171, 1)" stroke-width="1.5"></path><path d="M692.74 707.23L688.73 496.35" stroke="rgba(115, 115, 171, 1)" stroke-width="1.5"></path><path d="M815.71 224.42L815.71 224.42" stroke="rgba(115, 115, 171, 1)" stroke-width="1.5"></path><path d="M815.71 224.42L804.91 357.16" stroke="rgba(115, 115, 171, 1)" stroke-width="1.5"></path><path d="M815.71 224.42L1008.99 261.87" stroke="rgba(115, 115, 171, 1)" stroke-width="1.5"></path><path d="M815.71 224.42L648.91 346.21" stroke="rgba(115, 115, 171, 1)" stroke-width="1.5"></path><path d="M815.71 224.42L942.97 387.23" stroke="rgba(115, 115, 171, 1)" stroke-width="1.5"></path><path d="M815.71 224.42L688.73 496.35" stroke="rgba(115, 115, 171, 1)" stroke-width="1.5"></path><path d="M804.91 357.16L804.91 357.16" stroke="rgba(115, 115, 171, 1)" stroke-width="1.5"></path><path d="M804.91 357.16L942.97 387.23" stroke="rgba(115, 115, 171, 1)" stroke-width="1.5"></path><path d="M794.13 540.56L794.13 540.56" stroke="rgba(115, 115, 171, 1)" stroke-width="1.5"></path><path d="M794.13 540.56L821.03 696.35" stroke="rgba(115, 115, 171, 1)" stroke-width="1.5"></path><path d="M794.13 540.56L959.63 543.01" stroke="rgba(115, 115, 171, 1)" stroke-width="1.5"></path><path d="M794.13 540.56L804.91 357.16" stroke="rgba(115, 115, 171, 1)" stroke-width="1.5"></path><path d="M821.03 696.35L821.03 696.35" stroke="rgba(115, 115, 171, 1)" stroke-width="1.5"></path><path d="M821.03 696.35L961.94 644.9" stroke="rgba(115, 115, 171, 1)" stroke-width="1.5"></path><path d="M821.03 696.35L959.63 543.01" stroke="rgba(115, 115, 171, 1)" stroke-width="1.5"></path><path d="M821.03 696.35L688.73 496.35" stroke="rgba(115, 115, 171, 1)" stroke-width="1.5"></path><path d="M967.27 -94.15L967.27 -94.15" stroke="rgba(115, 115, 171, 1)" stroke-width="1.5"></path><path d="M967.27 -94.15L1095.15 -61.64" stroke="rgba(115, 115, 171, 1)" stroke-width="1.5"></path><path d="M967.27 -94.15L1131.69 105.48" stroke="rgba(115, 115, 171, 1)" stroke-width="1.5"></path><path d="M1008.99 261.87L1008.99 261.87" stroke="rgba(115, 115, 171, 1)" stroke-width="1.5"></path><path d="M1008.99 261.87L1116.22 211.96" stroke="rgba(115, 115, 171, 1)" stroke-width="1.5"></path><path d="M1008.99 261.87L942.97 387.23" stroke="rgba(115, 115, 171, 1)" stroke-width="1.5"></path><path d="M942.97 387.23L942.97 387.23" stroke="rgba(115, 115, 171, 1)" stroke-width="1.5"></path><path d="M959.63 543.01L959.63 543.01" stroke="rgba(115, 115, 171, 1)" stroke-width="1.5"></path><path d="M959.63 543.01L961.94 644.9" stroke="rgba(115, 115, 171, 1)" stroke-width="1.5"></path><path d="M959.63 543.01L942.97 387.23" stroke="rgba(115, 115, 171, 1)" stroke-width="1.5"></path><path d="M959.63 543.01L1118.4 491.22" stroke="rgba(115, 115, 171, 1)" stroke-width="1.5"></path><path d="M959.63 543.01L1138.68 676.66" stroke="rgba(115, 115, 171, 1)" stroke-width="1.5"></path><path d="M961.94 644.9L961.94 644.9" stroke="rgba(115, 115, 171, 1)" stroke-width="1.5"></path><path d="M961.94 644.9L1138.68 676.66" stroke="rgba(115, 115, 171, 1)" stroke-width="1.5"></path><path d="M961.94 644.9L794.13 540.56" stroke="rgba(115, 115, 171, 1)" stroke-width="1.5"></path><path d="M961.94 644.9L1118.4 491.22" stroke="rgba(115, 115, 171, 1)" stroke-width="1.5"></path><path d="M961.94 644.9L942.97 387.23" stroke="rgba(115, 115, 171, 1)" stroke-width="1.5"></path><path d="M1095.15 -61.64L1095.15 -61.64" stroke="rgba(115, 115, 171, 1)" stroke-width="1.5"></path><path d="M1095.15 -61.64L1131.69 105.48" stroke="rgba(115, 115, 171, 1)" stroke-width="1.5"></path><path d="M1095.15 -61.64L1284.79 -95.83" stroke="rgba(115, 115, 171, 1)" stroke-width="1.5"></path><path d="M1095.15 -61.64L1116.22 211.96" stroke="rgba(115, 115, 171, 1)" stroke-width="1.5"></path><path d="M1095.15 -61.64L1311.92 107.11" stroke="rgba(115, 115, 171, 1)" stroke-width="1.5"></path><path d="M1131.69 105.48L1131.69 105.48" stroke="rgba(115, 115, 171, 1)" stroke-width="1.5"></path><path d="M1131.69 105.48L1116.22 211.96" stroke="rgba(115, 115, 171, 1)" stroke-width="1.5"></path><path d="M1116.22 211.96L1116.22 211.96" stroke="rgba(115, 115, 171, 1)" stroke-width="1.5"></path><path d="M1162.49 386.25L1162.49 386.25" stroke="rgba(115, 115, 171, 1)" stroke-width="1.5"></path><path d="M1162.49 386.25L1118.4 491.22" stroke="rgba(115, 115, 171, 1)" stroke-width="1.5"></path><path d="M1162.49 386.25L1116.22 211.96" stroke="rgba(115, 115, 171, 1)" stroke-width="1.5"></path><path d="M1162.49 386.25L1008.99 261.87" stroke="rgba(115, 115, 171, 1)" stroke-width="1.5"></path><path d="M1162.49 386.25L1277.37 558.24" stroke="rgba(115, 115, 171, 1)" stroke-width="1.5"></path><path d="M1162.49 386.25L942.97 387.23" stroke="rgba(115, 115, 171, 1)" stroke-width="1.5"></path><path d="M1162.49 386.25L1308.51 205.21" stroke="rgba(115, 115, 171, 1)" stroke-width="1.5"></path><path d="M1118.4 491.22L1118.4 491.22" stroke="rgba(115, 115, 171, 1)" stroke-width="1.5"></path><path d="M1118.4 491.22L1277.37 558.24" stroke="rgba(115, 115, 171, 1)" stroke-width="1.5"></path><path d="M1118.4 491.22L1138.68 676.66" stroke="rgba(115, 115, 171, 1)" stroke-width="1.5"></path><path d="M1118.4 491.22L942.97 387.23" stroke="rgba(115, 115, 171, 1)" stroke-width="1.5"></path><path d="M1138.68 676.66L1138.68 676.66" stroke="rgba(115, 115, 171, 1)" stroke-width="1.5"></path><path d="M1138.68 676.66L1295.19 664.08" stroke="rgba(115, 115, 171, 1)" stroke-width="1.5"></path><path d="M1138.68 676.66L1277.37 558.24" stroke="rgba(115, 115, 171, 1)" stroke-width="1.5"></path><path d="M1138.68 676.66L1162.49 386.25" stroke="rgba(115, 115, 171, 1)" stroke-width="1.5"></path><path d="M1284.79 -95.83L1284.79 -95.83" stroke="rgba(115, 115, 171, 1)" stroke-width="1.5"></path><path d="M1284.79 -95.83L1403.39 -41.99" stroke="rgba(115, 115, 171, 1)" stroke-width="1.5"></path><path d="M1284.79 -95.83L1417.87 37.59" stroke="rgba(115, 115, 171, 1)" stroke-width="1.5"></path><path d="M1284.79 -95.83L1311.92 107.11" stroke="rgba(115, 115, 171, 1)" stroke-width="1.5"></path><path d="M1284.79 -95.83L1131.69 105.48" stroke="rgba(115, 115, 171, 1)" stroke-width="1.5"></path><path d="M1311.92 107.11L1311.92 107.11" stroke="rgba(115, 115, 171, 1)" stroke-width="1.5"></path><path d="M1311.92 107.11L1308.51 205.21" stroke="rgba(115, 115, 171, 1)" stroke-width="1.5"></path><path d="M1311.92 107.11L1417.87 37.59" stroke="rgba(115, 115, 171, 1)" stroke-width="1.5"></path><path d="M1311.92 107.11L1407.62 235.06" stroke="rgba(115, 115, 171, 1)" stroke-width="1.5"></path><path d="M1311.92 107.11L1403.39 -41.99" stroke="rgba(115, 115, 171, 1)" stroke-width="1.5"></path><path d="M1311.92 107.11L1131.69 105.48" stroke="rgba(115, 115, 171, 1)" stroke-width="1.5"></path><path d="M1308.51 205.21L1308.51 205.21" stroke="rgba(115, 115, 171, 1)" stroke-width="1.5"></path><path d="M1308.51 205.21L1407.62 235.06" stroke="rgba(115, 115, 171, 1)" stroke-width="1.5"></path><path d="M1308.51 205.21L1116.22 211.96" stroke="rgba(115, 115, 171, 1)" stroke-width="1.5"></path><path d="M1308.51 205.21L1417.87 37.59" stroke="rgba(115, 115, 171, 1)" stroke-width="1.5"></path><path d="M1308.51 205.21L1131.69 105.48" stroke="rgba(115, 115, 171, 1)" stroke-width="1.5"></path><path d="M1277.37 558.24L1277.37 558.24" stroke="rgba(115, 115, 171, 1)" stroke-width="1.5"></path><path d="M1277.37 558.24L1295.19 664.08" stroke="rgba(115, 115, 171, 1)" stroke-width="1.5"></path><path d="M1277.37 558.24L1447.34 558.2" stroke="rgba(115, 115, 171, 1)" stroke-width="1.5"></path><path d="M1295.19 664.08L1295.19 664.08" stroke="rgba(115, 115, 171, 1)" stroke-width="1.5"></path><path d="M1295.19 664.08L1449.88 681.82" stroke="rgba(115, 115, 171, 1)" stroke-width="1.5"></path><path d="M1295.19 664.08L1447.34 558.2" stroke="rgba(115, 115, 171, 1)" stroke-width="1.5"></path><path d="M1295.19 664.08L1118.4 491.22" stroke="rgba(115, 115, 171, 1)" stroke-width="1.5"></path><path d="M1403.39 -41.99L1403.39 -41.99" stroke="rgba(115, 115, 171, 1)" stroke-width="1.5"></path><path d="M1403.39 -41.99L1417.87 37.59" stroke="rgba(115, 115, 171, 1)" stroke-width="1.5"></path><path d="M1417.87 37.59L1417.87 37.59" stroke="rgba(115, 115, 171, 1)" stroke-width="1.5"></path><path d="M1407.62 235.06L1407.62 235.06" stroke="rgba(115, 115, 171, 1)" stroke-width="1.5"></path><path d="M1407.62 235.06L1417.87 37.59" stroke="rgba(115, 115, 171, 1)" stroke-width="1.5"></path><path d="M1447.34 558.2L1447.34 558.2" stroke="rgba(115, 115, 171, 1)" stroke-width="1.5"></path><path d="M1447.34 558.2L1548.33 490.31" stroke="rgba(115, 115, 171, 1)" stroke-width="1.5"></path><path d="M1447.34 558.2L1449.88 681.82" stroke="rgba(115, 115, 171, 1)" stroke-width="1.5"></path><path d="M1447.34 558.2L1546.75 647.11" stroke="rgba(115, 115, 171, 1)" stroke-width="1.5"></path><path d="M1449.88 681.82L1449.88 681.82" stroke="rgba(115, 115, 171, 1)" stroke-width="1.5"></path><path d="M1449.88 681.82L1546.75 647.11" stroke="rgba(115, 115, 171, 1)" stroke-width="1.5"></path><path d="M1449.88 681.82L1277.37 558.24" stroke="rgba(115, 115, 171, 1)" stroke-width="1.5"></path><path d="M1449.88 681.82L1548.33 490.31" stroke="rgba(115, 115, 171, 1)" stroke-width="1.5"></path><path d="M1449.88 681.82L1138.68 676.66" stroke="rgba(115, 115, 171, 1)" stroke-width="1.5"></path><path d="M1584.94 41.91L1584.94 41.91" stroke="rgba(115, 115, 171, 1)" stroke-width="1.5"></path><path d="M1584.94 41.91L1417.87 37.59" stroke="rgba(115, 115, 171, 1)" stroke-width="1.5"></path><path d="M1584.94 41.91L1611.59 215.07" stroke="rgba(115, 115, 171, 1)" stroke-width="1.5"></path><path d="M1584.94 41.91L1403.39 -41.99" stroke="rgba(115, 115, 171, 1)" stroke-width="1.5"></path><path d="M1584.94 41.91L1407.62 235.06" stroke="rgba(115, 115, 171, 1)" stroke-width="1.5"></path><path d="M1611.59 215.07L1611.59 215.07" stroke="rgba(115, 115, 171, 1)" stroke-width="1.5"></path><path d="M1611.59 215.07L1582.15 399.33" stroke="rgba(115, 115, 171, 1)" stroke-width="1.5"></path><path d="M1611.59 215.07L1407.62 235.06" stroke="rgba(115, 115, 171, 1)" stroke-width="1.5"></path><path d="M1611.59 215.07L1417.87 37.59" stroke="rgba(115, 115, 171, 1)" stroke-width="1.5"></path><path d="M1582.15 399.33L1582.15 399.33" stroke="rgba(115, 115, 171, 1)" stroke-width="1.5"></path><path d="M1582.15 399.33L1548.33 490.31" stroke="rgba(115, 115, 171, 1)" stroke-width="1.5"></path><path d="M1582.15 399.33L1447.34 558.2" stroke="rgba(115, 115, 171, 1)" stroke-width="1.5"></path><path d="M1582.15 399.33L1407.62 235.06" stroke="rgba(115, 115, 171, 1)" stroke-width="1.5"></path><path d="M1548.33 490.31L1548.33 490.31" stroke="rgba(115, 115, 171, 1)" stroke-width="1.5"></path><path d="M1548.33 490.31L1546.75 647.11" stroke="rgba(115, 115, 171, 1)" stroke-width="1.5"></path><path d="M1548.33 490.31L1277.37 558.24" stroke="rgba(115, 115, 171, 1)" stroke-width="1.5"></path><path d="M1548.33 490.31L1611.59 215.07" stroke="rgba(115, 115, 171, 1)" stroke-width="1.5"></path><path d="M1546.75 647.11L1546.75 647.11" stroke="rgba(115, 115, 171, 1)" stroke-width="1.5"></path><path d="M1546.75 647.11L1582.15 399.33" stroke="rgba(115, 115, 171, 1)" stroke-width="1.5"></path><path d="M1546.75 647.11L1295.19 664.08" stroke="rgba(115, 115, 171, 1)" stroke-width="1.5"></path><circle r="5" cx="-110.79" cy="402.11" fill="rgba(115, 115, 171, 1)"></circle><circle r="5" cx="-61.82" cy="668.9" fill="rgba(115, 115, 171, 1)"></circle><circle r="5" cx="44.13" cy="408.37" fill="rgba(115, 115, 171, 1)"></circle><circle r="5" cx="85.1" cy="503.19" fill="rgba(115, 115, 171, 1)"></circle><circle r="5" cx="103.17" cy="693.99" fill="rgba(115, 115, 171, 1)"></circle><circle r="5" cx="252.06" cy="372.52" fill="rgba(115, 115, 171, 1)"></circle><circle r="5" cx="217.32" cy="524.64" fill="rgba(115, 115, 171, 1)"></circle><circle r="5" cx="254.21" cy="672.85" fill="rgba(115, 115, 171, 1)"></circle><circle r="5" cx="371.37" cy="362.84" fill="rgba(115, 115, 171, 1)"></circle><circle r="5" cx="381.13" cy="552.45" fill="rgba(115, 115, 171, 1)"></circle><circle r="5" cx="347.4" cy="684.23" fill="rgba(115, 115, 171, 1)"></circle><circle r="5" cx="533.67" cy="393.2" fill="rgba(115, 115, 171, 1)"></circle><circle r="5" cx="487.78" cy="527.11" fill="rgba(115, 115, 171, 1)"></circle><circle r="5" cx="521.96" cy="689.15" fill="rgba(115, 115, 171, 1)"></circle><circle r="5" cx="648.91" cy="346.21" fill="rgba(115, 115, 171, 1)"></circle><circle r="5" cx="688.73" cy="496.35" fill="rgba(115, 115, 171, 1)"></circle><circle r="5" cx="692.74" cy="707.23" fill="rgba(115, 115, 171, 1)"></circle><circle r="5" cx="815.71" cy="224.42" fill="rgba(115, 115, 171, 1)"></circle><circle r="5" cx="804.91" cy="357.16" fill="rgba(115, 115, 171, 1)"></circle><circle r="5" cx="794.13" cy="540.56" fill="rgba(115, 115, 171, 1)"></circle><circle r="5" cx="821.03" cy="696.35" fill="rgba(115, 115, 171, 1)"></circle><circle r="5" cx="967.27" cy="-94.15" fill="rgba(115, 115, 171, 1)"></circle><circle r="5" cx="1008.99" cy="261.87" fill="rgba(115, 115, 171, 1)"></circle><circle r="5" cx="942.97" cy="387.23" fill="rgba(115, 115, 171, 1)"></circle><circle r="5" cx="959.63" cy="543.01" fill="rgba(115, 115, 171, 1)"></circle><circle r="5" cx="961.94" cy="644.9" fill="rgba(115, 115, 171, 1)"></circle><circle r="5" cx="1095.15" cy="-61.64" fill="rgba(115, 115, 171, 1)"></circle><circle r="5" cx="1131.69" cy="105.48" fill="rgba(115, 115, 171, 1)"></circle><circle r="5" cx="1116.22" cy="211.96" fill="rgba(115, 115, 171, 1)"></circle><circle r="5" cx="1162.49" cy="386.25" fill="rgba(115, 115, 171, 1)"></circle><circle r="5" cx="1118.4" cy="491.22" fill="rgba(115, 115, 171, 1)"></circle><circle r="5" cx="1138.68" cy="676.66" fill="rgba(115, 115, 171, 1)"></circle><circle r="5" cx="1284.79" cy="-95.83" fill="rgba(115, 115, 171, 1)"></circle><circle r="5" cx="1311.92" cy="107.11" fill="rgba(115, 115, 171, 1)"></circle><circle r="5" cx="1308.51" cy="205.21" fill="rgba(115, 115, 171, 1)"></circle><circle r="5" cx="1277.37" cy="558.24" fill="rgba(115, 115, 171, 1)"></circle><circle r="5" cx="1295.19" cy="664.08" fill="rgba(115, 115, 171, 1)"></circle><circle r="5" cx="1403.39" cy="-41.99" fill="rgba(115, 115, 171, 1)"></circle><circle r="5" cx="1417.87" cy="37.59" fill="rgba(115, 115, 171, 1)"></circle><circle r="5" cx="1407.62" cy="235.06" fill="rgba(115, 115, 171, 1)"></circle><circle r="5" cx="1447.34" cy="558.2" fill="rgba(115, 115, 171, 1)"></circle><circle r="5" cx="1449.88" cy="681.82" fill="rgba(115, 115, 171, 1)"></circle><circle r="5" cx="1584.94" cy="41.91" fill="rgba(115, 115, 171, 1)"></circle><circle r="5" cx="1611.59" cy="215.07" fill="rgba(115, 115, 171, 1)"></circle><circle r="5" cx="1582.15" cy="399.33" fill="rgba(115, 115, 171, 1)"></circle><circle r="5" cx="1548.33" cy="490.31" fill="rgba(115, 115, 171, 1)"></circle><circle r="5" cx="1546.75" cy="647.11" fill="rgba(115, 115, 171, 1)"></circle><path d="M402.42 491.63L402.42 491.63" stroke="hsl(225, 1.7%, 58.6%)" stroke-width="1.5"></path><path d="M402.42 491.63L507.1 492.57" stroke="hsl(225, 1.7%, 58.6%)" stroke-width="1.5"></path><path d="M402.42 491.63L261.91 511.37" stroke="hsl(225, 1.7%, 58.6%)" stroke-width="1.5"></path><path d="M402.42 491.63L515.3 655.91" stroke="hsl(225, 1.7%, 58.6%)" stroke-width="1.5"></path><path d="M402.42 491.63L404.32 704.85" stroke="hsl(225, 1.7%, 58.6%)" stroke-width="1.5"></path><path d="M507.1 492.57L507.1 492.57" stroke="hsl(225, 1.7%, 58.6%)" stroke-width="1.5"></path><path d="M507.1 492.57L515.3 655.91" stroke="hsl(225, 1.7%, 58.6%)" stroke-width="1.5"></path><path d="M987.46 360.96L987.46 360.96" stroke="hsl(225, 1.7%, 58.6%)" stroke-width="1.5"></path><path d="M987.46 360.96L1142.53 354.24" stroke="hsl(225, 1.7%, 58.6%)" stroke-width="1.5"></path><path d="M987.46 360.96L955.29 513.44" stroke="hsl(225, 1.7%, 58.6%)" stroke-width="1.5"></path><path d="M987.46 360.96L1123.89 250.25" stroke="hsl(225, 1.7%, 58.6%)" stroke-width="1.5"></path><path d="M987.46 360.96L799.6 368.95" stroke="hsl(225, 1.7%, 58.6%)" stroke-width="1.5"></path><path d="M987.46 360.96L1097.39 552.89" stroke="hsl(225, 1.7%, 58.6%)" stroke-width="1.5"></path><path d="M987.46 360.96L823.04 562.22" stroke="hsl(225, 1.7%, 58.6%)" stroke-width="1.5"></path><path d="M1275.82 657.54L1275.82 657.54" stroke="hsl(225, 1.7%, 58.6%)" stroke-width="1.5"></path><path d="M1275.82 657.54L1416.81 695.11" stroke="hsl(225, 1.7%, 58.6%)" stroke-width="1.5"></path><path d="M1275.82 657.54L1245.74 511.26" stroke="hsl(225, 1.7%, 58.6%)" stroke-width="1.5"></path><path d="M1275.82 657.54L1400.67 527.12" stroke="hsl(225, 1.7%, 58.6%)" stroke-width="1.5"></path><path d="M1275.82 657.54L1087.58 675.03" stroke="hsl(225, 1.7%, 58.6%)" stroke-width="1.5"></path><path d="M1275.82 657.54L1097.39 552.89" stroke="hsl(225, 1.7%, 58.6%)" stroke-width="1.5"></path><path d="M1392.78 393.55L1392.78 393.55" stroke="hsl(225, 1.7%, 58.6%)" stroke-width="1.5"></path><path d="M1392.78 393.55L1293.39 393.2" stroke="hsl(225, 1.7%, 58.6%)" stroke-width="1.5"></path><path d="M1392.78 393.55L1400.67 527.12" stroke="hsl(225, 1.7%, 58.6%)" stroke-width="1.5"></path><path d="M1392.78 393.55L1388.16 249.81" stroke="hsl(225, 1.7%, 58.6%)" stroke-width="1.5"></path><path d="M1392.78 393.55L1538.6 406.78" stroke="hsl(225, 1.7%, 58.6%)" stroke-width="1.5"></path><path d="M1392.78 393.55L1245.74 511.26" stroke="hsl(225, 1.7%, 58.6%)" stroke-width="1.5"></path><path d="M1400.67 527.12L1400.67 527.12" stroke="hsl(225, 1.7%, 58.6%)" stroke-width="1.5"></path><path d="M1400.67 527.12L1245.74 511.26" stroke="hsl(225, 1.7%, 58.6%)" stroke-width="1.5"></path><path d="M1400.67 527.12L1416.81 695.11" stroke="hsl(225, 1.7%, 58.6%)" stroke-width="1.5"></path><path d="M1400.67 527.12L1293.39 393.2" stroke="hsl(225, 1.7%, 58.6%)" stroke-width="1.5"></path><path d="M1416.81 695.11L1416.81 695.11" stroke="hsl(225, 1.7%, 58.6%)" stroke-width="1.5"></path><path d="M1416.81 695.11L1600.94 660.86" stroke="hsl(225, 1.7%, 58.6%)" stroke-width="1.5"></path><path d="M1416.81 695.11L1603.24 534.96" stroke="hsl(225, 1.7%, 58.6%)" stroke-width="1.5"></path><path d="M1416.81 695.11L1245.74 511.26" stroke="hsl(225, 1.7%, 58.6%)" stroke-width="1.5"></path><path d="M-50.19 533.85L-50.19 533.85" stroke="hsl(225, 1.7%, 58.6%)" stroke-width="1.5"></path><path d="M-50.19 533.85L-46.52 637.86" stroke="hsl(225, 1.7%, 58.6%)" stroke-width="1.5"></path><path d="M-50.19 533.85L92.15 557.33" stroke="hsl(225, 1.7%, 58.6%)" stroke-width="1.5"></path><path d="M-46.52 637.86L-46.52 637.86" stroke="hsl(225, 1.7%, 58.6%)" stroke-width="1.5"></path><path d="M-46.52 637.86L57.99 669.77" stroke="hsl(225, 1.7%, 58.6%)" stroke-width="1.5"></path><path d="M-46.52 637.86L92.15 557.33" stroke="hsl(225, 1.7%, 58.6%)" stroke-width="1.5"></path><path d="M92.15 557.33L92.15 557.33" stroke="hsl(225, 1.7%, 58.6%)" stroke-width="1.5"></path><path d="M92.15 557.33L57.99 669.77" stroke="hsl(225, 1.7%, 58.6%)" stroke-width="1.5"></path><path d="M92.15 557.33L261.91 511.37" stroke="hsl(225, 1.7%, 58.6%)" stroke-width="1.5"></path><path d="M92.15 557.33L225.61 688.79" stroke="hsl(225, 1.7%, 58.6%)" stroke-width="1.5"></path><path d="M57.99 669.77L57.99 669.77" stroke="hsl(225, 1.7%, 58.6%)" stroke-width="1.5"></path><path d="M57.99 669.77L225.61 688.79" stroke="hsl(225, 1.7%, 58.6%)" stroke-width="1.5"></path><path d="M57.99 669.77L-50.19 533.85" stroke="hsl(225, 1.7%, 58.6%)" stroke-width="1.5"></path><path d="M261.91 511.37L261.91 511.37" stroke="hsl(225, 1.7%, 58.6%)" stroke-width="1.5"></path><path d="M225.61 688.79L225.61 688.79" stroke="hsl(225, 1.7%, 58.6%)" stroke-width="1.5"></path><path d="M225.61 688.79L404.32 704.85" stroke="hsl(225, 1.7%, 58.6%)" stroke-width="1.5"></path><path d="M225.61 688.79L261.91 511.37" stroke="hsl(225, 1.7%, 58.6%)" stroke-width="1.5"></path><path d="M225.61 688.79L402.42 491.63" stroke="hsl(225, 1.7%, 58.6%)" stroke-width="1.5"></path><path d="M225.61 688.79L-46.52 637.86" stroke="hsl(225, 1.7%, 58.6%)" stroke-width="1.5"></path><path d="M404.32 704.85L404.32 704.85" stroke="hsl(225, 1.7%, 58.6%)" stroke-width="1.5"></path><path d="M404.32 704.85L515.3 655.91" stroke="hsl(225, 1.7%, 58.6%)" stroke-width="1.5"></path><path d="M404.32 704.85L507.1 492.57" stroke="hsl(225, 1.7%, 58.6%)" stroke-width="1.5"></path><path d="M515.3 655.91L515.3 655.91" stroke="hsl(225, 1.7%, 58.6%)" stroke-width="1.5"></path><path d="M515.3 655.91L673.43 708.08" stroke="hsl(225, 1.7%, 58.6%)" stroke-width="1.5"></path><path d="M515.3 655.91L701.61 523.53" stroke="hsl(225, 1.7%, 58.6%)" stroke-width="1.5"></path><path d="M701.61 523.53L701.61 523.53" stroke="hsl(225, 1.7%, 58.6%)" stroke-width="1.5"></path><path d="M701.61 523.53L823.04 562.22" stroke="hsl(225, 1.7%, 58.6%)" stroke-width="1.5"></path><path d="M701.61 523.53L799.6 368.95" stroke="hsl(225, 1.7%, 58.6%)" stroke-width="1.5"></path><path d="M701.61 523.53L673.43 708.08" stroke="hsl(225, 1.7%, 58.6%)" stroke-width="1.5"></path><path d="M673.43 708.08L673.43 708.08" stroke="hsl(225, 1.7%, 58.6%)" stroke-width="1.5"></path><path d="M673.43 708.08L788.48 689.56" stroke="hsl(225, 1.7%, 58.6%)" stroke-width="1.5"></path><path d="M799.6 368.95L799.6 368.95" stroke="hsl(225, 1.7%, 58.6%)" stroke-width="1.5"></path><path d="M799.6 368.95L823.04 562.22" stroke="hsl(225, 1.7%, 58.6%)" stroke-width="1.5"></path><path d="M799.6 368.95L955.29 513.44" stroke="hsl(225, 1.7%, 58.6%)" stroke-width="1.5"></path><path d="M799.6 368.95L507.1 492.57" stroke="hsl(225, 1.7%, 58.6%)" stroke-width="1.5"></path><path d="M799.6 368.95L788.48 689.56" stroke="hsl(225, 1.7%, 58.6%)" stroke-width="1.5"></path><path d="M823.04 562.22L823.04 562.22" stroke="hsl(225, 1.7%, 58.6%)" stroke-width="1.5"></path><path d="M823.04 562.22L788.48 689.56" stroke="hsl(225, 1.7%, 58.6%)" stroke-width="1.5"></path><path d="M823.04 562.22L955.29 513.44" stroke="hsl(225, 1.7%, 58.6%)" stroke-width="1.5"></path><path d="M823.04 562.22L673.43 708.08" stroke="hsl(225, 1.7%, 58.6%)" stroke-width="1.5"></path><path d="M788.48 689.56L788.48 689.56" stroke="hsl(225, 1.7%, 58.6%)" stroke-width="1.5"></path><path d="M788.48 689.56L701.61 523.53" stroke="hsl(225, 1.7%, 58.6%)" stroke-width="1.5"></path><path d="M788.48 689.56L979.01 711.17" stroke="hsl(225, 1.7%, 58.6%)" stroke-width="1.5"></path><path d="M788.48 689.56L955.29 513.44" stroke="hsl(225, 1.7%, 58.6%)" stroke-width="1.5"></path><path d="M788.48 689.56L515.3 655.91" stroke="hsl(225, 1.7%, 58.6%)" stroke-width="1.5"></path><path d="M955.29 513.44L955.29 513.44" stroke="hsl(225, 1.7%, 58.6%)" stroke-width="1.5"></path><path d="M955.29 513.44L1097.39 552.89" stroke="hsl(225, 1.7%, 58.6%)" stroke-width="1.5"></path><path d="M979.01 711.17L979.01 711.17" stroke="hsl(225, 1.7%, 58.6%)" stroke-width="1.5"></path><path d="M979.01 711.17L1087.58 675.03" stroke="hsl(225, 1.7%, 58.6%)" stroke-width="1.5"></path><path d="M979.01 711.17L1097.39 552.89" stroke="hsl(225, 1.7%, 58.6%)" stroke-width="1.5"></path><path d="M979.01 711.17L955.29 513.44" stroke="hsl(225, 1.7%, 58.6%)" stroke-width="1.5"></path><path d="M979.01 711.17L823.04 562.22" stroke="hsl(225, 1.7%, 58.6%)" stroke-width="1.5"></path><path d="M1143.81 65.36L1143.81 65.36" stroke="hsl(225, 1.7%, 58.6%)" stroke-width="1.5"></path><path d="M1143.81 65.36L1268.09 80.05" stroke="hsl(225, 1.7%, 58.6%)" stroke-width="1.5"></path><path d="M1143.81 65.36L1247.41 -40.46" stroke="hsl(225, 1.7%, 58.6%)" stroke-width="1.5"></path><path d="M1143.81 65.36L1247.42 196.03" stroke="hsl(225, 1.7%, 58.6%)" stroke-width="1.5"></path><path d="M1123.89 250.25L1123.89 250.25" stroke="hsl(225, 1.7%, 58.6%)" stroke-width="1.5"></path><path d="M1123.89 250.25L1142.53 354.24" stroke="hsl(225, 1.7%, 58.6%)" stroke-width="1.5"></path><path d="M1123.89 250.25L1247.42 196.03" stroke="hsl(225, 1.7%, 58.6%)" stroke-width="1.5"></path><path d="M1142.53 354.24L1142.53 354.24" stroke="hsl(225, 1.7%, 58.6%)" stroke-width="1.5"></path><path d="M1142.53 354.24L1293.39 393.2" stroke="hsl(225, 1.7%, 58.6%)" stroke-width="1.5"></path><path d="M1142.53 354.24L1245.74 511.26" stroke="hsl(225, 1.7%, 58.6%)" stroke-width="1.5"></path><path d="M1142.53 354.24L1247.42 196.03" stroke="hsl(225, 1.7%, 58.6%)" stroke-width="1.5"></path><path d="M1097.39 552.89L1097.39 552.89" stroke="hsl(225, 1.7%, 58.6%)" stroke-width="1.5"></path><path d="M1097.39 552.89L1087.58 675.03" stroke="hsl(225, 1.7%, 58.6%)" stroke-width="1.5"></path><path d="M1097.39 552.89L1245.74 511.26" stroke="hsl(225, 1.7%, 58.6%)" stroke-width="1.5"></path><path d="M1087.58 675.03L1087.58 675.03" stroke="hsl(225, 1.7%, 58.6%)" stroke-width="1.5"></path><path d="M1087.58 675.03L955.29 513.44" stroke="hsl(225, 1.7%, 58.6%)" stroke-width="1.5"></path><path d="M1087.58 675.03L1245.74 511.26" stroke="hsl(225, 1.7%, 58.6%)" stroke-width="1.5"></path><path d="M1087.58 675.03L823.04 562.22" stroke="hsl(225, 1.7%, 58.6%)" stroke-width="1.5"></path><path d="M1247.41 -40.46L1247.41 -40.46" stroke="hsl(225, 1.7%, 58.6%)" stroke-width="1.5"></path><path d="M1247.41 -40.46L1268.09 80.05" stroke="hsl(225, 1.7%, 58.6%)" stroke-width="1.5"></path><path d="M1247.41 -40.46L1409.84 -102.47" stroke="hsl(225, 1.7%, 58.6%)" stroke-width="1.5"></path><path d="M1247.41 -40.46L1437.77 50.03" stroke="hsl(225, 1.7%, 58.6%)" stroke-width="1.5"></path><path d="M1268.09 80.05L1268.09 80.05" stroke="hsl(225, 1.7%, 58.6%)" stroke-width="1.5"></path><path d="M1268.09 80.05L1247.42 196.03" stroke="hsl(225, 1.7%, 58.6%)" stroke-width="1.5"></path><path d="M1247.42 196.03L1247.42 196.03" stroke="hsl(225, 1.7%, 58.6%)" stroke-width="1.5"></path><path d="M1247.42 196.03L1388.16 249.81" stroke="hsl(225, 1.7%, 58.6%)" stroke-width="1.5"></path><path d="M1293.39 393.2L1293.39 393.2" stroke="hsl(225, 1.7%, 58.6%)" stroke-width="1.5"></path><path d="M1245.74 511.26L1245.74 511.26" stroke="hsl(225, 1.7%, 58.6%)" stroke-width="1.5"></path><path d="M1245.74 511.26L1293.39 393.2" stroke="hsl(225, 1.7%, 58.6%)" stroke-width="1.5"></path><path d="M1409.84 -102.47L1409.84 -102.47" stroke="hsl(225, 1.7%, 58.6%)" stroke-width="1.5"></path><path d="M1409.84 -102.47L1553.29 -63.71" stroke="hsl(225, 1.7%, 58.6%)" stroke-width="1.5"></path><path d="M1409.84 -102.47L1437.77 50.03" stroke="hsl(225, 1.7%, 58.6%)" stroke-width="1.5"></path><path d="M1437.77 50.03L1437.77 50.03" stroke="hsl(225, 1.7%, 58.6%)" stroke-width="1.5"></path><path d="M1437.77 50.03L1557.12 66.39" stroke="hsl(225, 1.7%, 58.6%)" stroke-width="1.5"></path><path d="M1437.77 50.03L1553.29 -63.71" stroke="hsl(225, 1.7%, 58.6%)" stroke-width="1.5"></path><path d="M1437.77 50.03L1268.09 80.05" stroke="hsl(225, 1.7%, 58.6%)" stroke-width="1.5"></path><path d="M1437.77 50.03L1388.16 249.81" stroke="hsl(225, 1.7%, 58.6%)" stroke-width="1.5"></path><path d="M1388.16 249.81L1388.16 249.81" stroke="hsl(225, 1.7%, 58.6%)" stroke-width="1.5"></path><path d="M1553.29 -63.71L1553.29 -63.71" stroke="hsl(225, 1.7%, 58.6%)" stroke-width="1.5"></path><path d="M1553.29 -63.71L1557.12 66.39" stroke="hsl(225, 1.7%, 58.6%)" stroke-width="1.5"></path><path d="M1557.12 66.39L1557.12 66.39" stroke="hsl(225, 1.7%, 58.6%)" stroke-width="1.5"></path><path d="M1597.33 253.97L1597.33 253.97" stroke="hsl(225, 1.7%, 58.6%)" stroke-width="1.5"></path><path d="M1597.33 253.97L1538.6 406.78" stroke="hsl(225, 1.7%, 58.6%)" stroke-width="1.5"></path><path d="M1538.6 406.78L1538.6 406.78" stroke="hsl(225, 1.7%, 58.6%)" stroke-width="1.5"></path><path d="M1538.6 406.78L1603.24 534.96" stroke="hsl(225, 1.7%, 58.6%)" stroke-width="1.5"></path><path d="M1538.6 406.78L1400.67 527.12" stroke="hsl(225, 1.7%, 58.6%)" stroke-width="1.5"></path><path d="M1538.6 406.78L1388.16 249.81" stroke="hsl(225, 1.7%, 58.6%)" stroke-width="1.5"></path><path d="M1538.6 406.78L1293.39 393.2" stroke="hsl(225, 1.7%, 58.6%)" stroke-width="1.5"></path><path d="M1603.24 534.96L1603.24 534.96" stroke="hsl(225, 1.7%, 58.6%)" stroke-width="1.5"></path><path d="M1603.24 534.96L1600.94 660.86" stroke="hsl(225, 1.7%, 58.6%)" stroke-width="1.5"></path><path d="M1600.94 660.86L1600.94 660.86" stroke="hsl(225, 1.7%, 58.6%)" stroke-width="1.5"></path><path d="M1600.94 660.86L1400.67 527.12" stroke="hsl(225, 1.7%, 58.6%)" stroke-width="1.5"></path><path d="M1600.94 660.86L1538.6 406.78" stroke="hsl(225, 1.7%, 58.6%)" stroke-width="1.5"></path><path d="M1600.94 660.86L1275.82 657.54" stroke="hsl(225, 1.7%, 58.6%)" stroke-width="1.5"></path><path d="M1600.94 660.86L1392.78 393.55" stroke="hsl(225, 1.7%, 58.6%)" stroke-width="1.5"></path><circle r="25" cx="402.42" cy="491.63" fill="url(#SvgjsRadialGradient1001)"></circle><circle r="25" cx="507.1" cy="492.57" fill="url(#SvgjsRadialGradient1001)"></circle><circle r="25" cx="987.46" cy="360.96" fill="url(#SvgjsRadialGradient1001)"></circle><circle r="25" cx="1275.82" cy="657.54" fill="url(#SvgjsRadialGradient1001)"></circle><circle r="25" cx="1392.78" cy="393.55" fill="url(#SvgjsRadialGradient1001)"></circle><circle r="25" cx="1400.67" cy="527.12" fill="url(#SvgjsRadialGradient1001)"></circle><circle r="25" cx="1416.81" cy="695.11" fill="url(#SvgjsRadialGradient1001)"></circle><circle r="5" cx="-50.19" cy="533.85" fill="#b8b9ba"></circle><circle r="5" cx="-46.52" cy="637.86" fill="#b8b9ba"></circle><circle r="5" cx="92.15" cy="557.33" fill="#b8b9ba"></circle><circle r="5" cx="57.99" cy="669.77" fill="#b8b9ba"></circle><circle r="5" cx="261.91" cy="511.37" fill="#b8b9ba"></circle><circle r="5" cx="225.61" cy="688.79" fill="#b8b9ba"></circle><circle r="5" cx="404.32" cy="704.85" fill="#b8b9ba"></circle><circle r="5" cx="515.3" cy="655.91" fill="#b8b9ba"></circle><circle r="5" cx="701.61" cy="523.53" fill="#b8b9ba"></circle><circle r="5" cx="673.43" cy="708.08" fill="#b8b9ba"></circle><circle r="5" cx="799.6" cy="368.95" fill="#b8b9ba"></circle><circle r="5" cx="823.04" cy="562.22" fill="#b8b9ba"></circle><circle r="5" cx="788.48" cy="689.56" fill="#b8b9ba"></circle><circle r="5" cx="955.29" cy="513.44" fill="#b8b9ba"></circle><circle r="5" cx="979.01" cy="711.17" fill="#b8b9ba"></circle><circle r="5" cx="1143.81" cy="65.36" fill="#b8b9ba"></circle><circle r="5" cx="1123.89" cy="250.25" fill="#b8b9ba"></circle><circle r="5" cx="1142.53" cy="354.24" fill="#b8b9ba"></circle><circle r="5" cx="1097.39" cy="552.89" fill="#b8b9ba"></circle><circle r="5" cx="1087.58" cy="675.03" fill="#b8b9ba"></circle><circle r="5" cx="1247.41" cy="-40.46" fill="#b8b9ba"></circle><circle r="5" cx="1268.09" cy="80.05" fill="#b8b9ba"></circle><circle r="5" cx="1247.42" cy="196.03" fill="#b8b9ba"></circle><circle r="5" cx="1293.39" cy="393.2" fill="#b8b9ba"></circle><circle r="5" cx="1245.74" cy="511.26" fill="#b8b9ba"></circle><circle r="5" cx="1409.84" cy="-102.47" fill="#b8b9ba"></circle><circle r="5" cx="1437.77" cy="50.03" fill="#b8b9ba"></circle><circle r="5" cx="1388.16" cy="249.81" fill="#b8b9ba"></circle><circle r="5" cx="1553.29" cy="-63.71" fill="#b8b9ba"></circle><circle r="5" cx="1557.12" cy="66.39" fill="#b8b9ba"></circle><circle r="5" cx="1597.33" cy="253.97" fill="#b8b9ba"></circle><circle r="5" cx="1538.6" cy="406.78" fill="#b8b9ba"></circle><circle r="5" cx="1603.24" cy="534.96" fill="#b8b9ba"></circle><circle r="5" cx="1600.94" cy="660.86" fill="#b8b9ba"></circle></g><defs><mask id="SvgjsMask1000"><rect width="1440" height="560" fill="#ffffff"></rect></mask><radialGradient id="SvgjsRadialGradient1001"><stop stop-color="#ffffff" offset="0.1"></stop><stop stop-color="rgba(113, 114, 117, 1)" offset="0.2"></stop><stop stop-color="rgba(113, 114, 117, 0)" offset="1"></stop></radialGradient></defs></svg>